<svg xmlns="http://www.w3.org/2000/svg" width="720" height="420" font-family="sans-serif" font-size="12">
<rect width="720" height="420" fill="white"/>
<text x="360.0" y="20" text-anchor="middle" font-size="15">GCM-to-AOI distance over time, 27 conditions (Fig 5 analogue)</text>
<line x1="60" y1="370.0" x2="700" y2="370.0" stroke="#ddd"/>
<text x="54" y="374.0" text-anchor="end">0.0</text>
<line x1="60" y1="304.0" x2="700" y2="304.0" stroke="#ddd"/>
<text x="54" y="308.0" text-anchor="end">8.6</text>
<line x1="60" y1="238.0" x2="700" y2="238.0" stroke="#ddd"/>
<text x="54" y="242.0" text-anchor="end">17.2</text>
<line x1="60" y1="172.00000000000006" x2="700" y2="172.00000000000006" stroke="#ddd"/>
<text x="54" y="176.00000000000006" text-anchor="end">25.8</text>
<line x1="60" y1="106.0" x2="700" y2="106.0" stroke="#ddd"/>
<text x="54" y="110.0" text-anchor="end">34.4</text>
<line x1="60" y1="40.0" x2="700" y2="40.0" stroke="#ddd"/>
<text x="54" y="44.0" text-anchor="end">43.1</text>
<text x="60.0" y="388" text-anchor="middle">1</text>
<text x="188.0" y="388" text-anchor="middle">41</text>
<text x="316.0" y="388" text-anchor="middle">81</text>
<text x="444.0" y="388" text-anchor="middle">120</text>
<text x="572.0" y="388" text-anchor="middle">160</text>
<text x="700.0" y="388" text-anchor="middle">200</text>
<line x1="60" y1="40" x2="60" y2="370" stroke="black"/>
<line x1="60" y1="370" x2="700" y2="370" stroke="black"/>
<text x="360.0" y="410" text-anchor="middle">timestep</text>
<text x="16" y="210.0" text-anchor="middle" transform="rotate(-90 16 210.0)">distance (units)</text>
<path d="M60.0,111.5 L63.2,112.3 L66.4,113.0 L69.6,113.7 L72.9,114.3 L76.1,115.1 L79.3,115.8 L82.5,117.2 L85.7,118.8 L88.9,121.6 L92.2,125.2 L95.4,129.6 L98.6,134.0 L101.8,138.8 L105.0,143.7 L108.2,148.8 L111.5,154.1 L114.7,159.5 L117.9,164.8 L121.1,170.3 L124.3,175.7 L127.5,181.1 L130.8,186.7 L134.0,192.1 L137.2,197.3 L140.4,202.4 L143.6,207.3 L146.8,212.0 L150.1,216.7 L153.3,221.2 L156.5,225.0 L159.7,228.2 L162.9,230.8 L166.1,233.2 L169.3,234.7 L172.6,235.7 L175.8,236.7 L179.0,237.5 L182.2,238.0 L185.4,238.6 L188.6,238.9 L191.9,239.3 L195.1,239.6 L198.3,240.0 L201.5,240.2 L204.7,240.7 L207.9,241.0 L211.2,241.1 L214.4,241.2 L217.6,241.5 L220.8,241.7 L224.0,242.3 L227.2,242.7 L230.5,243.2 L233.7,243.9 L236.9,244.8 L240.1,245.8 L243.3,246.5 L246.5,247.4 L249.7,248.0 L253.0,248.6 L256.2,248.5 L259.4,248.3 L262.6,248.5 L265.8,248.2 L269.0,248.4 L272.3,248.8 L275.5,249.0 L278.7,249.2 L281.9,249.1 L285.1,249.2 L288.3,249.3 L291.6,249.4 L294.8,249.5 L298.0,249.1 L301.2,248.9 L304.4,248.7 L307.6,248.7 L310.9,248.9 L314.1,249.1 L317.3,249.3 L320.5,249.6 L323.7,249.6 L326.9,249.4 L330.2,249.8 L333.4,249.7 L336.6,249.8 L339.8,249.9 L343.0,250.1 L346.2,250.0 L349.4,250.2 L352.7,250.2 L355.9,250.5 L359.1,250.3 L362.3,250.5 L365.5,250.3 L368.7,250.0 L372.0,250.1 L375.2,249.8 L378.4,249.8 L381.6,249.3 L384.8,249.2 L388.0,248.8 L391.3,248.6 L394.5,248.2 L397.7,247.9 L400.9,247.6 L404.1,247.4 L407.3,247.4 L410.6,247.4 L413.8,247.6 L417.0,247.6 L420.2,247.5 L423.4,247.6 L426.6,247.5 L429.8,247.3 L433.1,247.5 L436.3,247.6 L439.5,247.7 L442.7,248.0 L445.9,247.9 L449.1,248.2 L452.4,248.0 L455.6,248.2 L458.8,248.1 L462.0,248.0 L465.2,247.9 L468.4,247.7 L471.7,247.5 L474.9,247.3 L478.1,247.8 L481.3,248.2 L484.5,248.0 L487.7,247.8 L491.0,247.8 L494.2,247.9 L497.4,248.1 L500.6,248.0 L503.8,248.1 L507.0,248.1 L510.3,248.5 L513.5,248.6 L516.7,248.2 L519.9,247.9 L523.1,248.0 L526.3,248.1 L529.5,248.0 L532.8,247.8 L536.0,247.9 L539.2,247.8 L542.4,248.0 L545.6,248.1 L548.8,247.9 L552.1,247.7 L555.3,248.0 L558.5,248.0 L561.7,248.0 L564.9,248.1 L568.1,248.1 L571.4,247.6 L574.6,247.2 L577.8,247.5 L581.0,247.7 L584.2,247.9 L587.4,247.8 L590.7,247.6 L593.9,246.8 L597.1,246.5 L600.3,246.5 L603.5,246.9 L606.7,247.1 L609.9,247.5 L613.2,247.7 L616.4,247.8 L619.6,248.1 L622.8,247.9 L626.0,247.8 L629.2,248.1 L632.5,248.1 L635.7,247.6 L638.9,247.7 L642.1,247.9 L645.3,248.4 L648.5,248.7 L651.8,249.0 L655.0,249.4 L658.2,249.9 L661.4,250.1 L664.6,250.1 L667.8,250.5 L671.1,250.6 L674.3,250.7 L677.5,250.8 L680.7,251.0 L683.9,251.3 L687.1,251.6 L690.4,251.5 L693.6,250.9 L696.8,250.6 L700.0,250.7" fill="none" stroke="#4477aa" stroke-width="1.6"/>
<line x1="72" y1="50" x2="94" y2="50" stroke="#4477aa" stroke-width="2"/>
<text x="99" y="54">mean</text>
<path d="M60.0,158.7 L63.2,159.3 L66.4,159.6 L69.6,159.7 L72.9,159.6 L76.1,159.4 L79.3,159.0 L82.5,160.1 L85.7,161.5 L88.9,165.6 L92.2,168.9 L95.4,170.5 L98.6,172.4 L101.8,175.1 L105.0,177.8 L108.2,181.8 L111.5,184.6 L114.7,189.6 L117.9,193.8 L121.1,197.4 L124.3,204.3 L127.5,211.1 L130.8,218.0 L134.0,223.9 L137.2,230.6 L140.4,236.7 L143.6,242.3 L146.8,247.6 L150.1,252.6 L153.3,255.1 L156.5,257.6 L159.7,260.2 L162.9,262.9 L166.1,267.9 L169.3,270.9 L172.6,271.8 L175.8,272.4 L179.0,273.8 L182.2,273.4 L185.4,271.9 L188.6,271.6 L191.9,269.2 L195.1,266.2 L198.3,263.6 L201.5,261.8 L204.7,260.0 L207.9,259.0 L211.2,257.3 L214.4,257.9 L217.6,258.7 L220.8,257.6 L224.0,258.3 L227.2,258.7 L230.5,260.4 L233.7,259.6 L236.9,260.1 L240.1,261.2 L243.3,260.7 L246.5,260.7 L249.7,261.2 L253.0,260.6 L256.2,262.0 L259.4,261.3 L262.6,261.0 L265.8,260.6 L269.0,262.5 L272.3,261.1 L275.5,262.6 L278.7,263.6 L281.9,264.0 L285.1,266.0 L288.3,265.3 L291.6,266.5 L294.8,265.4 L298.0,266.2 L301.2,265.0 L304.4,262.8 L307.6,263.4 L310.9,262.2 L314.1,262.3 L317.3,261.9 L320.5,261.0 L323.7,260.5 L326.9,262.5 L330.2,266.3 L333.4,268.7 L336.6,269.0 L339.8,270.2 L343.0,271.3 L346.2,268.8 L349.4,267.9 L352.7,266.4 L355.9,264.8 L359.1,262.8 L362.3,260.5 L365.5,259.6 L368.7,260.4 L372.0,260.7 L375.2,261.0 L378.4,263.2 L381.6,263.9 L384.8,265.6 L388.0,265.3 L391.3,263.9 L394.5,264.6 L397.7,265.9 L400.9,266.0 L404.1,264.9 L407.3,263.6 L410.6,263.7 L413.8,264.2 L417.0,264.8 L420.2,266.1 L423.4,266.4 L426.6,266.1 L429.8,265.2 L433.1,266.7 L436.3,264.1 L439.5,265.6 L442.7,265.7 L445.9,264.9 L449.1,266.0 L452.4,263.4 L455.6,260.9 L458.8,259.6 L462.0,258.3 L465.2,257.3 L468.4,255.7 L471.7,255.3 L474.9,255.7 L478.1,257.4 L481.3,259.3 L484.5,259.2 L487.7,257.4 L491.0,259.2 L494.2,260.4 L497.4,261.0 L500.6,260.7 L503.8,260.5 L507.0,262.5 L510.3,263.9 L513.5,264.6 L516.7,263.9 L519.9,263.6 L523.1,263.5 L526.3,264.0 L529.5,263.4 L532.8,261.8 L536.0,264.1 L539.2,265.0 L542.4,265.8 L545.6,266.7 L548.8,265.0 L552.1,263.2 L555.3,262.6 L558.5,262.2 L561.7,263.0 L564.9,261.8 L568.1,260.7 L571.4,259.1 L574.6,257.8 L577.8,258.3 L581.0,259.8 L584.2,261.5 L587.4,262.3 L590.7,261.3 L593.9,261.1 L597.1,261.1 L600.3,262.1 L603.5,264.6 L606.7,263.1 L609.9,263.7 L613.2,263.2 L616.4,261.3 L619.6,262.8 L622.8,263.4 L626.0,264.9 L629.2,266.8 L632.5,267.6 L635.7,266.5 L638.9,266.7 L642.1,266.0 L645.3,266.6 L648.5,266.3 L651.8,267.2 L655.0,265.9 L658.2,266.3 L661.4,265.3 L664.6,265.8 L667.8,267.0 L671.1,266.0 L674.3,266.3 L677.5,266.6 L680.7,266.3 L683.9,266.9 L687.1,265.9 L690.4,265.1 L693.6,263.1 L696.8,262.4 L700.0,261.8" fill="none" stroke="#99bb55" stroke-width="1.6"/>
<line x1="134" y1="50" x2="156" y2="50" stroke="#99bb55" stroke-width="2"/>
<text x="161" y="54">min</text>
<path d="M60.0,64.4 L63.2,66.4 L66.4,68.5 L69.6,70.4 L72.9,72.2 L76.1,74.8 L79.3,75.7 L82.5,80.5 L85.7,84.9 L88.9,89.6 L92.2,94.2 L95.4,99.5 L98.6,105.7 L101.8,112.1 L105.0,116.5 L108.2,120.4 L111.5,125.8 L114.7,130.1 L117.9,135.6 L121.1,137.0 L124.3,138.8 L127.5,142.5 L130.8,146.4 L134.0,149.3 L137.2,152.7 L140.4,157.5 L143.6,163.1 L146.8,165.0 L150.1,166.2 L153.3,168.3 L156.5,171.3 L159.7,174.2 L162.9,175.3 L166.1,177.8 L169.3,181.1 L172.6,183.4 L175.8,185.7 L179.0,186.9 L182.2,189.5 L185.4,193.0 L188.6,196.1 L191.9,194.2 L195.1,191.7 L198.3,192.5 L201.5,195.1 L204.7,196.9 L207.9,199.5 L211.2,202.7 L214.4,203.8 L217.6,207.0 L220.8,212.7 L224.0,216.7 L227.2,220.8 L230.5,220.8 L233.7,220.0 L236.9,220.1 L240.1,220.5 L243.3,222.0 L246.5,223.8 L249.7,227.6 L253.0,230.5 L256.2,231.6 L259.4,231.3 L262.6,230.8 L265.8,230.4 L269.0,230.2 L272.3,232.6 L275.5,234.3 L278.7,236.6 L281.9,235.5 L285.1,233.5 L288.3,232.2 L291.6,231.8 L294.8,231.2 L298.0,231.3 L301.2,231.9 L304.4,231.7 L307.6,233.2 L310.9,233.8 L314.1,232.0 L317.3,232.9 L320.5,233.0 L323.7,234.1 L326.9,231.9 L330.2,232.1 L333.4,229.7 L336.6,229.7 L339.8,230.0 L343.0,231.0 L346.2,231.3 L349.4,230.6 L352.7,232.7 L355.9,232.7 L359.1,234.2 L362.3,236.7 L365.5,236.3 L368.7,233.5 L372.0,233.5 L375.2,234.6 L378.4,233.7 L381.6,233.2 L384.8,234.1 L388.0,234.2 L391.3,232.4 L394.5,230.7 L397.7,229.4 L400.9,229.3 L404.1,228.5 L407.3,228.2 L410.6,228.3 L413.8,228.1 L417.0,228.1 L420.2,227.7 L423.4,227.1 L426.6,227.8 L429.8,224.7 L433.1,224.1 L436.3,223.5 L439.5,224.2 L442.7,226.3 L445.9,228.6 L449.1,231.3 L452.4,232.2 L455.6,233.4 L458.8,234.8 L462.0,234.3 L465.2,234.9 L468.4,235.1 L471.7,234.1 L474.9,234.6 L478.1,236.3 L481.3,237.4 L484.5,237.9 L487.7,236.9 L491.0,236.4 L494.2,235.6 L497.4,235.1 L500.6,233.5 L503.8,231.6 L507.0,229.1 L510.3,229.3 L513.5,230.4 L516.7,229.8 L519.9,228.1 L523.1,227.3 L526.3,225.2 L529.5,223.1 L532.8,221.3 L536.0,219.1 L539.2,218.8 L542.4,217.1 L545.6,215.1 L548.8,217.1 L552.1,219.5 L555.3,223.2 L558.5,224.5 L561.7,226.4 L564.9,227.9 L568.1,231.1 L571.4,230.3 L574.6,229.3 L577.8,228.7 L581.0,229.4 L584.2,228.5 L587.4,230.8 L590.7,230.5 L593.9,228.5 L597.1,227.4 L600.3,226.1 L603.5,225.8 L606.7,225.6 L609.9,227.1 L613.2,230.7 L616.4,232.4 L619.6,231.5 L622.8,231.0 L626.0,231.0 L629.2,231.3 L632.5,230.6 L635.7,229.8 L638.9,229.8 L642.1,231.9 L645.3,233.1 L648.5,232.9 L651.8,232.6 L655.0,234.8 L658.2,234.8 L661.4,234.8 L664.6,237.5 L667.8,238.5 L671.1,237.6 L674.3,238.7 L677.5,237.7 L680.7,240.7 L683.9,239.7 L687.1,237.2 L690.4,236.9 L693.6,233.7 L696.8,234.0 L700.0,235.3" fill="none" stroke="#ee6677" stroke-width="1.6"/>
<line x1="188" y1="50" x2="210" y2="50" stroke="#ee6677" stroke-width="2"/>
<text x="215" y="54">max</text>
</svg>