<svg xmlns="http://www.w3.org/2000/svg" width="720" height="420" font-family="sans-serif" font-size="12">
<rect width="720" height="420" fill="white"/>
<text x="360.0" y="20" text-anchor="middle" font-size="15">Defender-side angle M3 over time (Fig 6 analogue)</text>
<line x1="60" y1="370.0" x2="700" y2="370.0" stroke="#ddd"/>
<text x="54" y="374.0" text-anchor="end">0.0</text>
<line x1="60" y1="304.0" x2="700" y2="304.0" stroke="#ddd"/>
<text x="54" y="308.0" text-anchor="end">0.6</text>
<line x1="60" y1="238.0" x2="700" y2="238.0" stroke="#ddd"/>
<text x="54" y="242.0" text-anchor="end">1.3</text>
<line x1="60" y1="172.0" x2="700" y2="172.0" stroke="#ddd"/>
<text x="54" y="176.0" text-anchor="end">1.9</text>
<line x1="60" y1="106.0" x2="700" y2="106.0" stroke="#ddd"/>
<text x="54" y="110.0" text-anchor="end">2.5</text>
<line x1="60" y1="40.0" x2="700" y2="40.0" stroke="#ddd"/>
<text x="54" y="44.0" text-anchor="end">3.1</text>
<text x="60.0" y="388" text-anchor="middle">1</text>
<text x="188.0" y="388" text-anchor="middle">41</text>
<text x="316.0" y="388" text-anchor="middle">81</text>
<text x="444.0" y="388" text-anchor="middle">120</text>
<text x="572.0" y="388" text-anchor="middle">160</text>
<text x="700.0" y="388" text-anchor="middle">200</text>
<line x1="60" y1="40" x2="60" y2="370" stroke="black"/>
<line x1="60" y1="370" x2="700" y2="370" stroke="black"/>
<text x="360.0" y="410" text-anchor="middle">timestep</text>
<text x="16" y="210.0" text-anchor="middle" transform="rotate(-90 16 210.0)">angle (rad)</text>
<line x1="60" y1="205.0" x2="700" y2="205.0" stroke="#c00" stroke-dasharray="6 4"/>
<text x="696" y="200.0" text-anchor="end" fill="#c00">pi/2</text>
<path d="M60.0,332.7 L63.2,325.2 L66.4,337.7 L69.6,329.2 L72.9,329.5 L76.1,320.4 L79.3,329.6 L82.5,331.3 L85.7,344.9 L88.9,348.5 L92.2,342.6 L95.4,339.6 L98.6,336.2 L101.8,344.5 L105.0,343.7 L108.2,335.4 L111.5,339.5 L114.7,342.2 L117.9,336.0 L121.1,314.8 L124.3,341.6 L127.5,330.2 L130.8,343.5 L134.0,348.7 L137.2,347.3 L140.4,350.5 L143.6,358.6 L146.8,357.5 L150.1,357.6 L153.3,355.2 L156.5,355.1 L159.7,363.6 L162.9,346.9 L166.1,356.0 L169.3,352.0 L172.6,344.5 L175.8,352.1 L179.0,343.1 L182.2,351.1 L185.4,332.6 L188.6,345.2 L191.9,360.2 L195.1,343.5 L198.3,328.7 L201.5,343.7 L204.7,354.8 L207.9,350.5 L211.2,359.2 L214.4,358.3 L217.6,355.1 L220.8,356.5 L224.0,358.0 L227.2,348.6 L230.5,358.9 L233.7,360.3 L236.9,343.4 L240.1,349.8 L243.3,352.2 L246.5,347.4 L249.7,357.7 L253.0,339.4 L256.2,360.7 L259.4,355.5 L262.6,351.3 L265.8,363.1 L269.0,354.2 L272.3,362.9 L275.5,337.3 L278.7,350.4 L281.9,341.0 L285.1,354.3 L288.3,342.4 L291.6,355.4 L294.8,366.4 L298.0,356.9 L301.2,353.0 L304.4,350.5 L307.6,353.2 L310.9,360.2 L314.1,329.7 L317.3,350.3 L320.5,356.0 L323.7,336.0 L326.9,360.7 L330.2,346.7 L333.4,338.3 L336.6,355.3 L339.8,341.2 L343.0,350.5 L346.2,357.0 L349.4,346.5 L352.7,338.4 L355.9,356.5 L359.1,341.9 L362.3,358.3 L365.5,342.2 L368.7,361.4 L372.0,358.9 L375.2,351.3 L378.4,348.8 L381.6,357.0 L384.8,339.7 L388.0,359.5 L391.3,357.2 L394.5,357.1 L397.7,352.3 L400.9,343.2 L404.1,354.8 L407.3,355.8 L410.6,364.2 L413.8,343.0 L417.0,353.3 L420.2,361.3 L423.4,351.3 L426.6,363.5 L429.8,349.3 L433.1,356.8 L436.3,325.0 L439.5,363.5 L442.7,347.0 L445.9,357.6 L449.1,342.5 L452.4,354.9 L455.6,347.9 L458.8,350.8 L462.0,361.5 L465.2,361.5 L468.4,363.0 L471.7,356.7 L474.9,353.4 L478.1,350.5 L481.3,356.5 L484.5,360.3 L487.7,356.6 L491.0,355.3 L494.2,354.1 L497.4,359.8 L500.6,337.2 L503.8,359.0 L507.0,355.3 L510.3,342.7 L513.5,353.9 L516.7,347.8 L519.9,359.2 L523.1,346.9 L526.3,348.9 L529.5,357.8 L532.8,359.0 L536.0,349.2 L539.2,340.3 L542.4,347.1 L545.6,365.1 L548.8,356.2 L552.1,353.5 L555.3,358.9 L558.5,361.4 L561.7,356.9 L564.9,359.7 L568.1,339.3 L571.4,355.6 L574.6,358.8 L577.8,355.1 L581.0,346.9 L584.2,358.2 L587.4,344.1 L590.7,354.3 L593.9,356.6 L597.1,351.2 L600.3,352.0 L603.5,359.2 L606.7,361.8 L609.9,353.3 L613.2,335.1 L616.4,348.6 L619.6,353.1 L622.8,353.4 L626.0,350.2 L629.2,346.9 L632.5,353.2 L635.7,344.6 L638.9,351.7 L642.1,353.3 L645.3,360.5 L648.5,349.7 L651.8,328.5 L655.0,355.8 L658.2,347.0 L661.4,349.9 L664.6,335.0 L667.8,350.5 L671.1,345.8 L674.3,355.9 L677.5,332.2 L680.7,356.7 L683.9,353.9 L687.1,345.3 L690.4,349.8 L693.6,346.1 L696.8,344.6 L700.0,351.0" fill="none" stroke="#4477aa" stroke-width="1.6"/>
<line x1="72" y1="50" x2="94" y2="50" stroke="#4477aa" stroke-width="2"/>
<text x="99" y="54">mean</text>
<path d="M60.0,271.5 L63.2,51.9 L66.4,286.3 L69.6,51.1 L72.9,62.5 L76.1,63.1 L79.3,87.6 L82.5,106.1 L85.7,266.4 L88.9,267.0 L92.2,206.5 L95.4,179.8 L98.6,180.5 L101.8,226.6 L105.0,222.6 L108.2,168.0 L111.5,191.8 L114.7,192.3 L117.9,192.9 L121.1,89.6 L124.3,208.2 L127.5,171.8 L130.8,205.4 L134.0,205.5 L137.2,141.0 L140.4,124.6 L143.6,272.0 L146.8,229.1 L150.1,162.8 L153.3,88.6 L156.5,110.3 L159.7,312.7 L162.9,50.8 L166.1,225.9 L169.3,69.9 L172.6,99.8 L175.8,216.7 L179.0,151.3 L182.2,169.2 L185.4,52.3 L188.6,66.8 L191.9,327.8 L195.1,81.8 L198.3,47.2 L201.5,134.3 L204.7,308.1 L207.9,93.2 L211.2,277.0 L214.4,174.9 L217.6,142.5 L220.8,196.5 L224.0,306.0 L227.2,116.7 L230.5,293.5 L233.7,330.7 L236.9,45.0 L240.1,148.1 L243.3,210.4 L246.5,194.9 L249.7,189.7 L253.0,132.1 L256.2,332.3 L259.4,303.9 L262.6,108.6 L265.8,336.8 L269.0,258.5 L272.3,316.5 L275.5,42.6 L278.7,46.6 L281.9,82.9 L285.1,258.2 L288.3,41.8 L291.6,246.8 L294.8,341.4 L298.0,277.9 L301.2,199.8 L304.4,63.8 L307.6,89.9 L310.9,291.7 L314.1,93.5 L317.3,69.2 L320.5,232.5 L323.7,42.7 L326.9,329.1 L330.2,61.9 L333.4,68.6 L336.6,302.7 L339.8,62.0 L343.0,108.3 L346.2,310.1 L349.4,96.9 L352.7,116.9 L355.9,305.4 L359.1,119.9 L362.3,319.5 L365.5,200.2 L368.7,334.3 L372.0,329.4 L375.2,85.1 L378.4,190.0 L381.6,289.1 L384.8,94.4 L388.0,306.0 L391.3,245.3 L394.5,236.5 L397.7,190.5 L400.9,183.5 L404.1,274.4 L407.3,280.2 L410.6,344.6 L413.8,133.8 L417.0,170.0 L420.2,292.1 L423.4,118.4 L426.6,335.8 L429.8,203.2 L433.1,262.9 L436.3,45.7 L439.5,302.7 L442.7,48.7 L445.9,304.6 L449.1,59.5 L452.4,205.7 L455.6,98.1 L458.8,140.4 L462.0,329.9 L465.2,317.5 L468.4,326.7 L471.7,219.2 L474.9,295.8 L478.1,147.4 L481.3,188.7 L484.5,324.0 L487.7,287.5 L491.0,311.8 L494.2,101.9 L497.4,276.2 L500.6,46.1 L503.8,297.0 L507.0,209.3 L510.3,78.2 L513.5,73.9 L516.7,114.5 L519.9,306.1 L523.1,140.2 L526.3,167.1 L529.5,250.1 L532.8,331.7 L536.0,141.1 L539.2,92.2 L542.4,155.6 L545.6,334.1 L548.8,301.0 L552.1,176.2 L555.3,323.1 L558.5,312.5 L561.7,271.3 L564.9,307.7 L568.1,83.5 L571.4,126.0 L574.6,321.2 L577.8,141.5 L581.0,51.5 L584.2,302.1 L587.4,87.3 L590.7,208.1 L593.9,176.5 L597.1,60.3 L600.3,94.3 L603.5,266.9 L606.7,304.1 L609.9,133.3 L613.2,106.1 L616.4,138.9 L619.6,217.3 L622.8,251.1 L626.0,108.7 L629.2,102.5 L632.5,219.7 L635.7,162.7 L638.9,114.8 L642.1,103.4 L645.3,328.1 L648.5,116.4 L651.8,62.5 L655.0,209.7 L658.2,119.3 L661.4,248.3 L664.6,62.8 L667.8,144.8 L671.1,118.3 L674.3,302.2 L677.5,51.4 L680.7,260.0 L683.9,227.3 L687.1,42.4 L690.4,133.4 L693.6,55.1 L696.8,251.5 L700.0,161.5" fill="none" stroke="#ee6677" stroke-width="1.6"/>
<line x1="134" y1="50" x2="156" y2="50" stroke="#ee6677" stroke-width="2"/>
<text x="161" y="54">max</text>
</svg>